<svg width="604" height="330" viewBox="0 0 604 330" fill="none" xmlns="http://www.w3.org/2000/svg">
<path d="M426.224 0H604C597.562 27.5733 591.124 55.1467 584.686 82.72C578.541 110 572.249 137.427 565.811 165C559.373 192.573 552.935 220.147 546.497 247.72C540.352 275 534.206 302.427 528.061 330H323.948L297.61 164.56C297.61 164.267 297.464 164.12 297.172 164.12C297.172 163.827 297.172 163.68 297.172 163.68C297.172 163.68 297.025 163.68 296.733 163.68C296.733 163.68 296.586 163.827 296.294 164.12C296.294 164.12 296.294 164.267 296.294 164.56L270.395 330H79.8896C74.6221 308 69.3547 286 64.0872 264C58.8198 242 53.406 220 47.846 198C42.5785 176 37.3111 154 32.0436 132C26.7762 110 21.3624 88 15.8024 66C10.5349 44 5.26744 22 0 0H186.994C189.335 14.96 191.53 30.0667 193.579 45.32C195.92 60.28 198.114 75.24 200.163 90.2C202.504 105.16 204.845 120.267 207.186 135.52C209.527 150.48 211.722 165.44 213.77 180.4C213.77 180.4 213.917 180.4 214.209 180.4C214.502 180.4 214.795 180.4 215.087 180.4C215.38 180.4 215.526 180.4 215.526 180.4C215.819 180.4 215.965 180.4 215.965 180.4L240.547 0H372.672L398.57 180.4C398.862 180.4 399.009 180.4 399.009 180.4C399.301 180.4 399.448 180.4 399.448 180.4C403.837 150.187 408.227 120.12 412.616 90.2C417.298 60.28 421.834 30.2133 426.224 0Z" fill="#E0E0E0"/>
</svg>
